<?xml version="1.0" standalone="no"?>
<!DOCTYPE svg PUBLIC "-//W3C//DTD SVG 20010904//EN"
 "http://www.w3.org/TR/2001/REC-SVG-20010904/DTD/svg10.dtd">
<svg version="1.0" xmlns="http://www.w3.org/2000/svg"
 width="999.000000pt" height="999.000000pt" viewBox="0 0 999.000000 999.000000"
 preserveAspectRatio="xMidYMid meet">
<metadata>
Created by potrace 1.11, written by Peter Selinger 2001-2013
</metadata>
<g transform="translate(0.000000,999.000000) scale(0.100000,-0.100000)"
fill="#000000" stroke="none">
<path d="M2827 9648 c4 -7 8 -89 9 -183 1 -93 5 -212 9 -262 5 -58 4 -93 -2
-93 -5 0 -10 -7 -10 -15 0 -8 3 -15 7 -15 10 0 10 -43 -1 -56 -7 -8 -6 -14 1
-19 6 -3 8 -11 5 -16 -4 -5 -1 -9 5 -9 7 0 9 -8 5 -20 -4 -12 -2 -20 5 -20 6
0 8 -4 5 -10 -3 -5 -2 -10 4 -10 5 0 8 -9 6 -20 -2 -11 0 -20 6 -20 5 0 8 -3
8 -7 -1 -5 -1 -10 1 -13 9 -25 6 -59 -5 -64 -14 -5 -13 -35 0 -57 4 -5 9 -42
11 -82 3 -40 6 -82 7 -94 0 -13 4 -23 8 -23 3 0 5 -10 5 -22 -1 -13 1 -28 5
-33 8 -11 7 -33 -2 -50 -10 -17 6 -117 23 -148 7 -12 12 -26 13 -30 0 -4 6
-11 13 -16 22 -14 1 -46 -28 -43 -3 0 -7 -8 -7 -19 -1 -10 2 -19 6 -19 9 0 23
-33 26 -65 2 -11 5 -37 8 -57 2 -21 1 -35 -3 -33 -8 5 -56 -47 -52 -58 1 -4
-1 -6 -5 -5 -5 2 -10 -1 -12 -7 -2 -5 -11 -15 -20 -22 -13 -9 -8 -11 22 -9 37
3 37 3 22 -21 -19 -28 -29 -174 -13 -184 7 -4 6 -14 -3 -30 -7 -13 -14 -26
-14 -29 -1 -3 -13 -29 -28 -58 -15 -29 -25 -58 -21 -64 4 -6 1 -9 -7 -6 -7 2
-17 23 -22 46 -4 23 -11 42 -15 42 -4 0 -8 10 -9 22 -1 11 -7 24 -13 28 -7 4
-11 9 -10 11 4 8 -24 59 -32 59 -4 0 -8 7 -8 15 0 9 -7 18 -15 21 -8 3 -17 14
-20 25 -4 10 -12 19 -19 19 -8 0 -20 8 -27 18 -13 16 -13 16 6 2 18 -14 19
-14 7 2 -8 10 -22 20 -33 23 -11 4 -17 9 -15 13 2 4 -8 16 -22 26 -16 12 -23
14 -18 5 4 -8 -1 -3 -12 11 -19 23 -35 22 -38 -1 -1 -5 -3 -10 -4 -11 -1 -2
-4 -12 -6 -23 -2 -11 -6 -36 -10 -55 -4 -19 -7 -43 -8 -52 0 -10 -4 -18 -8
-18 -4 0 -6 -8 -6 -17 1 -17 -5 -53 -17 -113 -2 -13 -7 -40 -10 -60 -3 -20 -8
-47 -11 -60 -3 -14 -7 -49 -9 -78 -2 -29 -8 -59 -14 -66 -6 -7 -8 -16 -4 -19
3 -4 2 -7 -4 -7 -9 0 -32 -47 -32 -66 0 -12 -31 -34 -49 -34 -10 0 -22 -3 -25
-7 -7 -6 -41 -12 -79 -14 -10 0 -18 -3 -18 -7 0 -4 -12 -9 -26 -10 -15 -1 -32
-6 -39 -12 -6 -5 -14 -7 -17 -4 -4 3 -19 -1 -36 -10 -16 -8 -32 -13 -34 -10
-3 2 -24 -4 -47 -15 -44 -19 -44 -21 7 -48 18 -9 21 -9 15 0 -4 7 8 -3 26 -21
19 -18 36 -30 39 -28 3 3 12 -3 19 -14 8 -11 18 -18 23 -15 4 3 13 -1 19 -9 9
-11 2 -22 -36 -56 -42 -37 -152 -100 -175 -100 -14 0 -103 -44 -106 -52 -2 -5
-8 -6 -12 -3 -14 8 -151 -69 -139 -78 2 -2 78 -34 168 -70 91 -37 175 -74 187
-82 13 -8 28 -32 33 -52 6 -21 24 -83 40 -138 l28 -100 95 95 c97 97 175 196
242 308 36 59 56 77 56 49 0 -7 -4 -17 -9 -23 -19 -20 -139 -262 -134 -268 4
-3 1 -6 -5 -6 -7 0 -12 -4 -12 -9 0 -5 -15 -42 -34 -83 -18 -40 -39 -91 -47
-113 -7 -22 -16 -44 -20 -50 -6 -10 -50 -141 -53 -160 -1 -5 -5 -16 -10 -23
-4 -7 -5 -16 -2 -19 3 -3 2 -11 -3 -17 -7 -10 -25 -75 -36 -132 -2 -11 -4 -19
-5 -19 -3 0 -13 -52 -14 -77 0 -16 -3 -28 -6 -28 -4 0 -7 -10 -8 -22 -1 -13
-4 -43 -7 -68 -9 -70 -13 -370 -5 -365 4 3 7 -10 5 -28 -1 -17 1 -36 4 -42 3
-5 7 -19 9 -30 2 -11 5 -25 6 -32 1 -7 5 -16 9 -19 4 -4 7 -20 7 -35 0 -15 5
-31 10 -34 6 -4 7 -11 4 -17 -4 -7 -2 -8 5 -4 6 4 9 11 7 15 -5 8 -12 43 -23
111 -13 89 -4 239 22 365 4 17 7 38 8 48 1 9 5 17 9 17 4 0 5 9 3 20 -2 11 -1
20 3 20 4 0 9 8 10 18 4 34 8 52 15 58 4 4 7 18 7 30 0 13 5 26 11 29 6 4 8
13 5 21 -3 8 -2 14 2 14 9 0 48 110 44 123 -1 4 3 7 8 7 6 0 10 7 10 15 0 8 4
15 9 15 5 0 9 -42 9 -92 0 -129 6 -175 33 -293 19 -77 86 -235 101 -235 4 0 8
-7 8 -15 0 -8 5 -15 11 -15 5 0 8 -4 5 -8 -3 -5 10 -25 28 -45 18 -20 32 -38
30 -40 -2 -1 38 -45 88 -97 50 -52 87 -89 83 -81 -5 9 -4 12 3 7 7 -4 12 -14
12 -22 0 -8 3 -14 8 -14 4 0 41 -31 82 -69 41 -38 79 -67 84 -64 5 3 6 1 3 -4
-7 -12 16 -36 26 -28 4 3 5 2 3 -1 -6 -8 26 -44 41 -44 6 0 15 -5 19 -12 5 -7
3 -8 -7 -3 -8 5 7 -13 33 -41 76 -79 157 -185 189 -244 l29 -55 -6 40 c-4 22
-10 45 -15 51 -5 6 -6 14 -2 17 3 4 1 7 -6 7 -7 0 -10 4 -7 9 3 5 -1 23 -10
40 -21 42 -13 48 25 21 17 -12 31 -19 31 -15 0 3 10 -3 22 -15 21 -19 33 -24
51 -21 5 1 6 -3 3 -8 -6 -9 31 -27 47 -23 5 1 6 -2 3 -7 -6 -8 15 -20 36 -21
4 0 18 -10 31 -23 54 -51 103 -91 109 -89 5 1 7 -1 6 -6 -1 -4 9 -27 24 -52
39 -67 42 -113 10 -153 l-27 -32 40 34 c58 50 94 93 101 119 6 21 8 22 24 7 9
-8 20 -13 23 -10 4 3 5 2 3 -1 -3 -3 4 -16 15 -28 12 -11 35 -39 52 -60 18
-22 39 -47 47 -56 8 -9 16 -22 18 -29 3 -14 43 -73 55 -82 5 -3 8 -9 7 -13 0
-3 9 -38 21 -76 21 -64 38 -83 38 -42 0 9 3 35 7 57 9 50 10 205 2 267 -4 27
-3 48 2 48 11 0 63 -63 81 -98 8 -15 18 -30 24 -34 5 -4 7 -8 3 -8 -3 0 0 -20
7 -45 20 -64 13 -180 -12 -232 -12 -24 -18 -43 -14 -43 15 0 116 72 113 81 -1
6 2 7 8 4 7 -4 14 2 17 14 3 11 9 18 14 15 5 -3 9 -1 9 4 0 13 50 69 51 57 1
-5 3 -26 4 -46 1 -20 4 -43 8 -52 5 -14 -17 -33 -35 -29 -5 1 -8 -3 -8 -10 0
-6 -3 -9 -6 -5 -4 3 -19 0 -35 -9 -16 -8 -31 -14 -34 -14 -3 0 -18 -6 -34 -14
-16 -9 -31 -12 -35 -9 -3 4 -6 2 -6 -4 0 -5 -6 -10 -12 -10 -40 -1 -259 -52
-274 -64 -6 -5 -14 -6 -17 -2 -4 3 -7 1 -7 -5 0 -6 -7 -9 -15 -6 -8 4 -15 1
-15 -6 0 -6 -5 -8 -10 -5 -6 4 -16 3 -23 -2 -7 -5 -41 -18 -77 -28 -36 -10
-70 -22 -76 -27 -6 -4 -13 -5 -16 -3 -3 3 -27 1 -54 -6 -27 -6 -59 -11 -71
-11 -13 0 -23 -4 -23 -7 0 -4 -10 -7 -22 -8 -13 0 -35 -3 -50 -7 -16 -3 -40
-8 -55 -11 -14 -3 -36 -11 -47 -18 -12 -6 -25 -12 -31 -12 -5 -1 -19 -5 -30
-9 -11 -4 -32 -12 -47 -18 -16 -6 -28 -15 -28 -20 0 -5 -4 -7 -10 -3 -5 3 -18
-2 -28 -12 -10 -10 -25 -19 -33 -21 -8 -2 -21 -11 -30 -22 -9 -11 -18 -17 -21
-15 -6 7 -93 -77 -91 -87 2 -4 -4 -8 -14 -8 -9 0 -14 -3 -11 -6 3 -3 -7 -18
-22 -34 -25 -25 -126 -210 -115 -210 2 0 -3 -16 -11 -35 -8 -19 -12 -35 -9
-35 2 0 0 -11 -5 -24 -25 -66 -34 -349 -17 -506 27 -243 29 -225 -18 -224 -22
1 -78 4 -125 8 -47 4 -90 8 -97 9 -7 0 -10 4 -7 8 2 4 -11 22 -28 40 -18 18
-26 29 -18 25 8 -4 5 1 -7 12 -12 11 -19 22 -16 26 4 3 1 6 -5 6 -7 0 -11 3
-11 8 3 19 -2 33 -11 27 -6 -3 -7 1 -4 9 4 9 -1 18 -10 22 -9 3 -13 10 -10 15
3 5 0 9 -6 9 -6 0 -9 4 -5 9 3 5 -2 16 -10 25 -9 8 -16 18 -16 21 1 21 -13 65
-21 65 -5 0 -8 6 -7 13 4 22 -13 87 -23 87 -5 0 -7 4 -3 10 7 11 -38 42 -56
38 -19 -4 -47 -30 -51 -48 -2 -8 -11 -21 -21 -29 -10 -7 -16 -19 -13 -26 3 -8
-1 -19 -9 -25 -7 -6 -14 -19 -14 -28 0 -90 -8 -121 -26 -92 -4 6 -11 8 -16 5
-5 -4 -9 -2 -9 4 0 9 -81 7 -130 -4 -14 -3 -41 -7 -60 -10 -42 -6 -75 -13 -75
-15 0 -3 -56 -10 -77 -11 -10 0 -20 -4 -23 -9 -3 -5 -12 -7 -20 -4 -22 9 -43
-36 -40 -86 2 -25 4 -45 5 -45 3 0 12 -41 11 -55 0 -8 -2 -49 -4 -90 -2 -41 0
-90 4 -107 4 -18 3 -33 -1 -33 -4 0 -6 -33 -5 -73 1 -39 3 -72 4 -72 2 0 5
-20 7 -45 3 -25 9 -49 13 -55 7 -10 6 -31 -5 -76 -8 -35 54 -163 108 -221 22
-24 40 -45 40 -48 5 -26 12 -39 19 -34 5 3 9 -3 9 -14 0 -10 9 -28 20 -40 11
-12 20 -26 20 -32 0 -6 7 -13 15 -16 8 -4 12 -10 9 -15 -3 -5 -1 -9 5 -9 5 0
13 -9 16 -20 4 -11 10 -18 14 -16 4 3 8 -1 8 -9 0 -8 -1 -15 -2 -15 -1 0 -24
4 -51 9 -27 5 -72 12 -99 15 -28 3 -61 8 -75 11 -60 12 -240 22 -535 30 -110
3 -240 7 -290 10 -162 10 -240 15 -268 19 -15 3 -27 1 -25 -4 3 -8 100 -82
203 -155 31 -22 62 -39 68 -37 7 2 9 0 5 -3 -8 -8 65 -65 82 -65 5 0 10 -4 10
-8 0 -5 28 -29 63 -54 34 -25 78 -60 97 -76 19 -16 69 -57 110 -92 41 -34 92
-77 113 -96 20 -19 37 -32 37 -28 0 3 8 -3 18 -14 34 -40 195 -161 206 -155 6
3 8 3 4 -2 -11 -12 112 -91 135 -87 4 1 7 -3 7 -8 0 -19 207 -100 257 -100 45
0 22 -18 -36 -28 -73 -13 -188 -67 -260 -121 -86 -65 -190 -164 -184 -174 3
-6 1 -7 -5 -3 -6 3 -13 2 -17 -4 -4 -7 1071 -9 3337 -8 l3343 3 1 218 c1 191
-1 219 -15 226 -15 7 -49 7 -133 -2 -25 -3 -39 1 -42 10 -3 7 -2 13 3 13 4 0
8 6 8 13 1 11 6 41 18 97 19 89 26 345 12 435 -4 28 -7 63 -7 78 0 16 -3 33
-7 40 -3 6 -8 27 -10 46 -2 20 -4 42 -5 49 -1 6 -5 12 -10 12 -5 0 -7 4 -3 9
5 8 -2 46 -22 126 -2 11 -6 29 -8 40 -10 52 -16 76 -25 99 -5 13 -6 27 -3 30
4 3 1 6 -6 6 -7 0 -9 5 -6 10 4 6 1 27 -6 48 -7 20 -14 44 -15 52 -4 27 -14
74 -21 100 -10 38 -10 40 -13 43 -1 1 -3 16 -5 32 -1 17 -3 30 -4 30 -2 0 -5
18 -7 40 -3 22 -12 65 -21 95 -9 30 -15 56 -14 58 1 1 -5 17 -13 36 -8 19 -12
37 -9 40 3 3 1 11 -4 18 -6 7 -9 21 -8 30 2 10 0 18 -4 18 -6 0 -11 20 -14 63
-1 9 -4 17 -7 17 -3 0 -6 10 -7 23 -2 23 -10 60 -13 65 -2 1 -4 7 -5 12 -1 6
-4 13 -5 18 -1 4 -2 15 -1 25 1 9 -2 17 -8 17 -5 0 -10 8 -10 18 0 19 -14 92
-21 112 -1 3 -2 9 -1 14 1 5 -1 16 -5 25 -4 9 -8 25 -10 36 -1 11 -5 31 -8 45
-4 14 -8 39 -11 55 -7 53 -16 107 -22 129 -18 75 -19 306 -1 306 4 0 6 8 6 18
0 9 2 31 5 47 4 17 9 48 13 70 3 22 8 43 11 48 2 4 -1 7 -7 7 -8 0 -9 7 -5 17
4 10 8 26 10 36 2 9 6 21 9 26 5 8 17 66 20 101 1 9 6 21 10 28 4 7 6 16 3 19
-3 3 -1 17 4 32 31 81 30 271 -2 271 -5 0 -8 3 -8 8 3 19 -2 33 -11 27 -5 -3
-10 -2 -10 3 0 5 -16 26 -35 46 -19 21 -35 34 -35 30 0 -4 -6 0 -13 10 -14 19
-67 29 -67 12 0 -6 -11 1 -24 14 -13 14 -21 28 -19 33 2 4 0 7 -6 7 -6 0 -8 7
-5 15 4 8 1 15 -5 15 -6 0 -11 7 -11 15 0 8 -9 24 -20 35 -11 11 -18 20 -15
20 3 0 -5 12 -19 27 -25 26 -71 39 -81 22 -7 -11 -36 -12 -33 -1 3 15 -22 61
-39 70 -10 6 -16 12 -13 14 8 5 -33 47 -42 42 -4 -3 -8 -1 -8 5 0 6 -20 9 -47
7 -41 -3 -52 0 -73 23 -14 15 -18 18 -10 7 14 -19 14 -20 -4 -6 -10 8 -22 24
-27 37 -4 12 -27 36 -50 52 -33 25 -45 28 -61 20 -11 -6 -22 -8 -25 -6 -3 3
-23 -1 -45 -9 -22 -8 -43 -14 -45 -14 -11 0 12 47 44 89 38 50 51 64 38 42 -5
-9 -4 -12 3 -7 7 4 12 14 12 22 0 8 4 13 9 10 4 -3 19 3 31 14 13 11 29 20 36
20 7 0 14 3 16 8 2 4 30 18 63 31 70 29 207 109 250 147 17 14 40 33 52 41 13
8 20 20 16 26 -3 5 -2 7 4 4 9 -6 80 68 83 85 0 4 12 19 26 33 14 14 22 30 19
35 -3 6 -2 10 4 10 5 0 13 10 17 23 4 12 10 24 14 27 10 7 51 120 44 120 -4 0
-1 7 6 15 7 9 10 18 7 22 -4 3 -3 11 2 17 5 6 11 31 14 56 6 70 22 57 21 -17
-5 -235 -60 -395 -180 -519 -35 -35 -67 -65 -71 -66 -4 0 -24 -11 -43 -23 -32
-19 -160 -71 -202 -81 -10 -2 -28 -7 -40 -10 -13 -3 -29 -6 -35 -6 -7 -1 -13
-5 -13 -10 0 -9 104 -3 120 7 6 4 25 8 42 11 17 2 35 9 39 15 4 6 11 9 17 5 6
-3 16 0 24 7 7 8 18 12 24 10 6 -2 17 3 24 12 7 8 18 15 25 15 7 0 27 13 44
29 16 15 33 26 36 23 3 -3 5 2 5 11 0 10 6 16 13 15 6 -2 11 3 9 10 -1 8 2 11
7 8 11 -7 81 72 81 91 0 7 4 13 8 13 8 0 27 33 31 55 1 6 9 17 17 27 9 9 17
25 19 35 2 10 4 19 5 21 2 1 3 5 4 10 1 4 4 12 8 17 8 13 28 86 34 128 7 44
11 67 18 102 7 36 8 271 1 335 -8 83 -16 145 -21 173 -6 30 13 38 23 10 4 -10
9 -20 12 -23 8 -7 25 -38 63 -113 17 -34 35 -65 41 -68 5 -3 8 -9 7 -13 -3
-13 24 -76 33 -76 4 0 6 -4 2 -9 -3 -5 -1 -12 5 -16 6 -4 8 -11 5 -16 -4 -5
-1 -9 5 -9 6 0 9 -4 6 -8 -2 -4 1 -21 9 -37 41 -93 69 -241 69 -362 0 -35 3
-63 8 -63 4 0 8 6 9 13 2 29 8 64 15 92 9 38 9 237 0 290 -4 22 -9 52 -12 67
-2 15 -9 40 -15 55 -6 15 -10 28 -9 28 8 0 -39 145 -49 155 -4 3 -6 10 -7 15
-1 25 -17 65 -26 65 -5 0 -7 4 -4 8 6 10 -119 263 -135 272 -6 4 -11 11 -10
16 0 5 -21 42 -46 82 -25 40 -43 76 -40 78 3 3 23 -12 44 -33 51 -51 163 -125
180 -119 7 3 13 2 13 -2 0 -18 335 -116 441 -129 51 -6 52 -6 45 18 -29 104
-61 303 -46 294 4 -2 18 7 31 21 18 19 159 135 208 171 11 8 -17 16 -160 49
-283 63 -411 105 -483 156 -21 15 -42 25 -47 22 -5 -3 -9 0 -9 6 0 6 -11 15
-24 21 -13 6 -27 21 -31 33 -11 32 -12 36 -15 39 -2 2 -6 19 -14 52 -2 11 -5
20 -6 20 -6 0 -12 54 -16 140 -5 98 -9 150 -14 150 -1 0 -3 9 -5 20 -2 11 -6
31 -10 45 -4 14 -7 31 -7 38 -1 6 -5 12 -10 12 -5 0 -7 4 -3 9 3 5 1 20 -4 33
-12 30 -24 61 -26 71 -2 4 -4 10 -5 15 -1 4 -2 10 -1 15 0 4 -3 7 -7 7 -4 0
-8 10 -9 22 -1 11 -7 24 -13 28 -7 4 -11 11 -10 16 0 5 -6 10 -14 12 -9 2 -16
-2 -16 -8 0 -6 -4 -9 -8 -6 -5 3 -37 -22 -73 -55 -35 -33 -57 -57 -49 -54 8 4
6 -1 -4 -9 -11 -9 -23 -16 -28 -16 -4 0 -8 -6 -8 -14 0 -7 -7 -19 -15 -26 -9
-7 -13 -15 -11 -17 2 -3 -5 -14 -16 -25 -11 -11 -17 -26 -14 -34 4 -10 2 -12
-6 -8 -8 5 -9 2 -5 -9 4 -10 2 -17 -4 -17 -6 0 -9 -6 -6 -14 3 -8 2 -16 -3
-18 -5 -2 -11 -16 -14 -32 -7 -37 -14 -44 -21 -20 -4 10 -19 51 -35 89 -24 57
-36 135 -22 135 7 0 33 -29 32 -35 -1 -4 1 -9 4 -12 9 -9 17 38 19 109 1 38 5
68 8 68 3 0 14 -7 25 -16 10 -8 13 -13 7 -9 -19 9 -16 2 7 -18 20 -17 20 -16
16 81 -3 53 -7 113 -10 132 -4 27 -1 41 17 61 12 14 18 18 12 9 -6 -10 -2 -8
13 4 27 23 28 32 4 38 -17 5 -27 38 -12 38 4 0 7 6 8 13 0 6 3 25 7 40 5 23 2
27 -12 25 -19 -3 -19 1 -8 72 4 19 8 58 10 85 4 47 11 90 15 90 2 0 10 55 12
83 1 6 6 12 11 12 5 0 7 7 3 15 -3 8 -1 15 4 15 5 0 7 7 4 15 -3 8 -10 13 -16
12 -6 -1 -12 8 -14 21 -2 12 1 22 7 22 5 0 8 4 4 9 -3 5 -2 12 3 15 4 2 7 29
6 58 -1 29 2 56 7 59 5 3 10 17 11 32 1 15 5 27 9 27 3 0 6 6 6 13 0 6 4 20 8
30 5 12 2 17 -9 17 -16 0 -16 19 0 100 3 14 7 41 9 60 2 19 6 46 10 60 3 14 8
48 9 75 2 28 5 51 6 53 1 1 3 14 4 30 1 15 5 32 9 39 8 13 -1 43 -13 43 -4 0
-7 11 -6 25 0 14 5 25 10 25 5 0 7 3 4 6 -4 3 0 20 7 37 7 18 14 35 14 40 1 4
1 8 2 10 10 34 25 292 20 356 -1 8 -24 -9 -56 -40 -30 -30 -63 -54 -72 -55
-23 -1 -93 -43 -93 -56 0 -5 -4 -6 -10 -3 -9 6 -64 -19 -174 -79 -27 -14 -55
-26 -62 -26 -8 0 -14 -5 -14 -11 0 -5 -5 -7 -11 -3 -6 3 -14 3 -18 -2 -12 -17
-71 -45 -81 -39 -5 3 -25 -8 -42 -24 -18 -17 -41 -34 -51 -37 -10 -3 -14 -11
-11 -17 4 -7 4 -9 0 -5 -9 7 -137 -50 -148 -66 -4 -6 -8 -7 -8 -3 0 11 -60
-25 -60 -36 0 -4 -4 -6 -9 -2 -5 3 -12 1 -16 -5 -3 -5 -11 -10 -16 -10 -6 0
-7 5 -4 10 15 24 -71 -10 -87 -34 -4 -6 -8 -7 -8 -2 0 5 -6 3 -13 -3 -8 -6
-42 -26 -78 -44 -35 -18 -73 -38 -84 -44 -11 -6 -39 -21 -62 -32 -35 -17 -41
-18 -36 -4 5 13 3 14 -15 4 -12 -6 -26 -19 -31 -29 -6 -9 -11 -13 -11 -8 0 5
-9 1 -20 -9 -11 -10 -20 -16 -21 -14 0 2 -2 26 -5 54 -2 27 -9 54 -15 60 -7 7
-10 5 -8 -5 1 -8 0 -22 -4 -30 -3 -8 -8 -27 -11 -41 l-6 -26 -96 48 c-255 127
-510 202 -779 227 -97 10 -375 8 -440 -3 -164 -26 -221 -37 -229 -45 -5 -5
-14 -6 -21 -4 -14 6 -242 -68 -289 -94 -17 -9 -33 -17 -36 -17 -3 0 -16 -7
-29 -14 -23 -13 -27 -11 -77 43 -55 59 -68 68 -57 39 6 -15 4 -16 -9 -6 -8 7
-19 9 -23 5 -5 -4 -5 -1 -1 6 4 6 3 12 -2 12 -5 0 -24 13 -43 29 -18 16 -37
27 -41 25 -5 -3 -7 -2 -6 3 2 4 0 9 -5 10 -4 2 -13 7 -20 13 -34 28 -107 80
-107 76 0 -9 -110 108 -110 117 0 4 -5 7 -11 7 -6 0 -8 -9 -4 -20 6 -19 4 -19
-39 5 -26 14 -50 23 -55 20 -5 -3 -11 -1 -13 3 -3 9 -165 76 -170 71 -2 -2
-13 6 -26 16 -12 11 -25 19 -28 17 -2 -1 -12 4 -20 13 -18 17 -39 20 -28 4 3
-6 -13 1 -37 15 -61 36 -233 121 -238 117 -2 -1 -7 1 -10 6 -7 9 -65 37 -67
31 -1 -1 -11 6 -23 16 -12 11 -21 16 -21 12 0 -4 -10 2 -22 14 -24 22 -64 28
-51 8z m3938 -5149 c4 -12 8 -29 9 -37 3 -19 -15 -42 -27 -35 -4 2 -10 -3 -13
-11 -3 -9 -10 -13 -15 -10 -5 3 -9 0 -9 -6 0 -6 -4 -8 -10 -5 -5 3 -10 1 -10
-5 0 -6 -5 -8 -10 -5 -6 3 -13 -1 -16 -9 -3 -9 -10 -14 -14 -11 -5 3 -13 -3
-19 -12 -6 -10 -11 -14 -11 -10 0 4 -17 -9 -37 -29 -35 -35 -37 -42 -39 -103
0 -36 2 -70 5 -76 8 -15 10 -35 3 -36 -4 0 -18 -2 -31 -3 -25 -3 -50 -29 -52
-55 -1 -9 -3 -25 -5 -36 -2 -11 -8 -41 -12 -67 -5 -26 -8 -67 -7 -91 l2 -43
-95 1 c-52 0 -113 -2 -136 -5 -22 -3 -68 -2 -101 1 -39 4 -64 2 -70 -5 -26
-28 -54 -33 -190 -30 -118 2 -187 10 -295 36 -8 1 -28 10 -45 19 -30 16 -30
16 -30 102 0 48 3 87 7 87 5 0 8 -4 8 -8 0 -14 132 -152 140 -147 5 3 12 0 16
-6 5 -8 2 -10 -7 -5 -8 4 -1 -4 16 -18 29 -25 46 -27 28 -4 -21 30 7 206 35
216 6 2 12 -2 12 -10 0 -28 60 -135 100 -178 37 -40 40 -41 26 -14 -19 39 -22
106 -7 164 7 25 13 51 13 58 1 6 5 12 10 12 4 0 8 6 8 13 0 8 11 27 24 42 14
16 22 34 19 39 -3 6 -3 8 0 5 4 -3 34 20 67 52 34 32 63 58 65 59 20 3 34 14
28 23 -3 5 -2 7 4 4 6 -4 19 0 29 8 25 19 38 19 30 -1 -13 -33 -18 -112 -7
-118 5 -4 8 -12 5 -19 -2 -7 2 -21 9 -31 13 -18 15 -17 21 17 4 20 8 40 9 44
1 4 16 23 34 42 17 19 29 39 26 45 -3 5 -2 6 4 3 5 -3 24 7 42 23 17 16 35 30
39 31 22 5 31 12 25 22 -3 6 -1 7 6 3 6 -4 19 -2 27 5 9 7 21 14 28 16 6 1 29
9 51 17 22 8 51 15 64 16 37 0 151 42 144 53 -3 6 -1 7 4 4 6 -4 22 2 34 13
31 25 36 25 44 -1z m-4017 -2330 c16 1 26 -7 33 -27 9 -22 14 -77 10 -104 -1
-4 -20 1 -43 12 -24 10 -61 26 -83 36 -22 9 -44 16 -48 15 -5 -1 -6 3 -3 8 4
5 -2 14 -11 20 -10 5 -17 12 -15 15 6 14 1 27 -8 21 -5 -3 -10 -1 -10 4 0 8
25 9 78 5 42 -3 87 -5 100 -5z m16 -219 c25 -12 46 -24 47 -28 0 -7 4 -29 14
-87 3 -16 7 -50 9 -75 3 -25 7 -65 11 -90 13 -81 12 -99 -4 -102 -12 -3 -14
-44 -13 -285 l1 -281 -24 -16 c-14 -9 -25 -13 -26 -9 0 5 -2 17 -4 28 -6 30
-18 239 -18 320 0 77 8 169 18 200 6 16 3 16 -13 -5 -11 -13 -18 -28 -16 -32
3 -4 -2 -8 -11 -8 -14 0 -15 9 -9 58 15 127 10 305 -11 401 -4 17 -5 31 -2 31
2 0 25 -9 51 -20z"/>
<path d="M6180 4116 c0 -2 8 -10 18 -17 15 -13 16 -12 3 4 -13 16 -21 21 -21
13z"/>
<path d="M2196 4982 c-3 -5 1 -15 9 -22 8 -7 12 -16 9 -21 -3 -5 0 -9 5 -9 14
0 14 2 -3 35 -8 14 -17 22 -20 17z"/>
<path d="M3261 4384 c0 -11 3 -14 6 -6 3 7 2 16 -1 19 -3 4 -6 -2 -5 -13z"/>
<path d="M7660 3996 c0 -2 8 -10 18 -17 15 -13 16 -12 3 4 -13 16 -21 21 -21
13z"/>
<path d="M4011 3834 c0 -11 3 -14 6 -6 3 7 2 16 -1 19 -3 4 -6 -2 -5 -13z"/>
<path d="M9000 609 c0 -6 -4 -8 -9 -4 -5 3 -16 -2 -25 -10 -8 -9 -18 -16 -21
-15 -3 0 -9 0 -14 0 -13 0 -52 -65 -54 -89 0 -11 -5 -19 -11 -18 -11 2 -20
-110 -10 -133 4 -8 8 -21 10 -29 4 -19 46 -102 61 -121 7 -8 28 -36 46 -63 18
-26 37 -44 42 -40 4 5 5 2 1 -4 -4 -8 4 -23 18 -38 14 -14 26 -29 26 -33 0 -4
112 -8 249 -10 197 -2 249 0 247 10 -9 42 -19 67 -26 63 -4 -3 -7 1 -7 8 1 26
-25 76 -37 71 -12 -5 -21 12 -31 56 -2 8 -8 23 -13 35 -6 11 -17 37 -26 58
-10 20 -21 37 -27 37 -6 0 -8 4 -5 9 6 9 -51 101 -63 101 -4 0 -13 12 -19 26
-7 14 -17 22 -22 19 -6 -3 -10 -1 -10 5 0 12 -40 49 -50 46 -3 0 -16 9 -30 22
-13 12 -29 21 -34 20 -6 0 -23 4 -38 10 -39 16 -118 24 -118 11z"/>
</g>
</svg>
